#!OML:ASF H:\Terrain\Patient Classification 1\Terrain2\Thursday\justin.ASF
:FULLY-SPECIFIED
:DEGREES
3849
root 31.5365 17.6751 -9.21907 1257 -34.8007 -173.463
lowerback 5.20328 -1.03892 1.89895
upperback 2.21022 -1.45232 3.7857
thorax -0.587892 -0.816244 2.91227
lowerneck -12.2507 1.85227 -9.35189
upperneck 39.784 0.651009 2.69544
head 16.2014 -2.01801 2.60811
rclavicle 3.39922e-014 2.10712e-014
rhumerus -36.4125 -19.9388 -71.0572
rradius 23.2122
rwrist -6.59082
rhand -23.6122 11.1839
rfingers 7.12502
rthumb 2.8519 -18.7768
lclavicle 3.39922e-014 2.10712e-014
lhumerus -32.5812 2.55871 84.3173
lradius 47.5541
lwrist 6.15177
lhand -16.5331 21.8975
lfingers 7.12502
lthumb 9.68586 51.6548
rfemur -12.3782 5.19627 21.6624
rtibia 30.4336
rfoot -15.6078 11.2987
rtoes 13.2649
lfemur -12.7502 -8.72279 -10.9579
ltibia 28.4772
lfoot -2.76992 -35.7498
ltoes 20.0729
3850
root 31.5577 17.6819 -9.2693 1257.1 -35.6834 -173.592
lowerback 5.09446 -0.934052 1.88717
upperback 2.25933 -1.31845 3.78165
thorax -0.481508 -0.748813 2.90388
lowerneck -12.268 1.81043 -9.38913
upperneck 39.69 0.663012 2.73073
head 16.1556 -1.98487 2.638
rclavicle 6.96243e-014 -5.12864e-014
rhumerus -36.2695 -19.9072 -70.8359
rradius 22.8756
rwrist -6.25868
rhand -23.2994 10.994
rfingers 7.12502
rthumb 3.15399 -18.9624
lclavicle 6.96243e-014 -5.12864e-014
lhumerus -32.5663 3.88753 83.7102
lradius 46.6266
lwrist 3.07473
lhand -12.5027 19.5164
lfingers 7.12502
lthumb 13.5726 49.054
rfemur -12.2129 4.21472 21.5759
rtibia 30.2653
rfoot -16.0199 11.6342
rtoes 12.641
lfemur -12.9912 -9.12839 -11.0469
ltibia 28.7801
lfoot -2.98351 -35.581
ltoes 18.7123
3851
root 31.5824 17.6841 -9.31378 1257.05 -36.462 -173.591
lowerback 5.19605 -0.842169 2.0359
upperback 2.26858 -1.18254 3.71434
thorax -0.537894 -0.678418 2.74535
lowerneck -12.0941 1.84255 -9.17157
upperneck 39.6444 0.608064 2.87441
head 16.0892 -1.93973 2.65585
rclavicle 5.82439e-014 1.63003e-014
rhumerus -36.0526 -19.2153 -71.2417
rradius 22.9771
rwrist -6.89911
rhand -23.5377 9.27612
rfingers 7.12502
rthumb 2.92379 -20.6836
lclavicle 5.82439e-014 1.63003e-014
lhumerus -32.9064 3.0903 84.2168
lradius 46.8442
lwrist 6.6226
lhand -17.7577 21.7821
lfingers 7.12502
lthumb 8.50416 51.5909
rfemur -11.9571 3.54316 21.629
rtibia 30.1
rfoot -16.0324 11.7686
rtoes 13.3941
lfemur -13.1829 -9.59878 -11.0127
ltibia 29.1127
lfoot -3.3552 -35.1725
ltoes 16.8553
3852
root 31.6119 17.6836 -9.35939 1256.96 -37.1651 -173.335
lowerback 5.13028 -0.789115 2.265
upperback 2.28718 -1.10838 3.76462
thorax -0.487274 -0.641795 2.66299
lowerneck -12.2991 1.91006 -9.34748
upperneck 39.6058 0.813645 3.01965
head 16.0984 -1.83532 2.79226
rclavicle 1.54058e-015 3.22031e-014
rhumerus -35.7235 -18.3368 -71.7289
rradius 23.3152
rwrist -7.54532
rhand -23.5158 6.88111
rfingers 7.12502
rthumb 2.94496 -23.0783
lclavicle 1.54058e-015 3.22031e-014
lhumerus -33.2441 2.72019 84.5445
lradius 46.8032
lwrist 9.77374
lhand -21.5657 20.724
lfingers 7.12502
lthumb 4.82814 50.6489
rfemur -11.7859 3.34197 21.9707
rtibia 29.9036
rfoot -16.0412 11.3453
rtoes 14.1314
lfemur -13.5372 -9.73928 -10.7021
ltibia 29.4908
lfoot -3.45729 -34.935
ltoes 16.1405
3853
root 31.6356 17.688 -9.40757 1256.87 -38.0386 -173.126
lowerback 5.03384 -0.685194 2.5231
upperback 2.31395 -0.96903 3.84757
thorax -0.412152 -0.573116 2.59426
lowerneck -12.4403 1.82568 -9.50922
upperneck 39.6335 0.784489 3.07417
head 16.1513 -1.84681 2.84789
rclavicle -6.99722e-014 1.19271e-014
rhumerus -35.6134 -18.1291 -71.5977
rradius 23.3618
rwrist -7.55548
rhand -22.9032 6.1596
rfingers 7.12502
rthumb 3.53657 -23.7908
lclavicle -6.99722e-014 1.19271e-014
lhumerus -33.3653 2.98749 84.548
lradius 46.7488
lwrist 9.31602
lhand -20.264 21.1685
lfingers 7.12502
lthumb 6.08494 51.0611
rfemur -11.573 2.84001 22.2474
rtibia 29.7213
rfoot -16.465 10.9849
rtoes 13.1576
lfemur -13.8936 -9.81938 -10.4989
ltibia 29.9081
lfoot -3.8938 -34.8883
ltoes 14.803
3854
root 31.6568 17.6973 -9.44961 1256.85 -39.0577 -173.091
lowerback 5.09697 -0.478107 2.85839
upperback 2.27604 -0.670657 3.81983
thorax -0.497782 -0.421169 2.36277
lowerneck -12.5139 1.56975 -9.67937
upperneck 39.6585 0.485527 3.12725
head 16.2133 -1.97042 2.86033
rclavicle -4.27387e-015 -2.46493e-014
rhumerus -35.8992 -18.7775 -70.9314
rradius 23.2996
rwrist -6.7221
rhand -22.3232 7.00594
rfingers 7.12502
rthumb 4.09663 -22.9344
lclavicle -4.27387e-015 -2.46493e-014
lhumerus -33.4541 2.68245 84.7531
lradius 46.6486
lwrist 8.72944
lhand -18.1551 21.6789
lfingers 7.12502
lthumb 8.12069 51.5028
rfemur -11.3954 2.09633 22.3375
rtibia 29.6133
rfoot -16.8089 10.6891
rtoes 12.1226
lfemur -14.2722 -9.86115 -10.4979
ltibia 30.3339
lfoot -4.69582 -34.9511
ltoes 12.414
3855
root 31.6898 17.6968 -9.48557 1256.92 -39.9799 -173.177
lowerback 5.32592 -0.346591 2.88888
upperback 2.15885 -0.467352 3.75821
thorax -0.751177 -0.316834 2.27425
lowerneck -12.3889 1.46035 -9.64479
upperneck 39.5609 0.342092 3.13788
head 16.1456 -2.00113 2.8377
rclavicle 4.96962e-015 7.15625e-015
rhumerus -36.0697 -18.8546 -70.67
rradius 23.1609
rwrist -6.2524
rhand -22.6121 8.22673
rfingers 7.12502
rthumb 3.81768 -21.7188
lclavicle 4.96962e-015 7.15625e-015
lhumerus -33.634 2.49418 84.7981
lradius 46.1657
lwrist 8.55825
lhand -17.1136 22.7755
lfingers 7.12502
lthumb 9.12571 52.5581
rfemur -11.2991 1.78042 22.3704
rtibia 29.5578
rfoot -16.8201 10.1145
rtoes 12.0642
lfemur -14.6742 -9.75368 -10.5502
ltibia 30.7801
lfoot -5.23279 -34.7687
ltoes 10.493
3856
root 31.7311 17.6856 -9.52096 1256.75 -40.8537 -173.063
lowerback 5.66816 -0.381761 2.81761
upperback 2.07459 -0.493375 3.79084
thorax -1.0275 -0.331159 2.35452
lowerneck -12.2715 1.56696 -9.54622
upperneck 39.5389 0.478093 3.16846
head 16.0905 -1.91649 2.85672
rclavicle 6.16232e-015 1.55052e-014
rhumerus -35.9274 -17.8477 -71.0589
rradius 23.1392
rwrist -6.54704
rhand -23.3236 8.92509
rfingers 7.12502
rthumb 3.1306 -21.0317
lclavicle 6.16232e-015 1.55052e-014
lhumerus -33.7373 2.79983 84.602
lradius 45.29
lwrist 8.65191
lhand -18.0745 23.7927
lfingers 7.12502
lthumb 8.19843 53.6136
rfemur -11.0827 1.66886 22.6179
rtibia 29.5033
rfoot -16.7219 9.45535
rtoes 12.7506
lfemur -14.9285 -9.55284 -10.4539
ltibia 31.2926
lfoot -6.51681 -34.0395
ltoes 6.93935
3857
root 31.7588 17.6831 -9.55902 1256.28 -41.8025 -172.464
lowerback 5.7087 -0.499026 3.21024
upperback 2.13089 -0.639325 3.89618
thorax -0.990826 -0.407996 2.25304
lowerneck -12.2975 1.67806 -9.33908
upperneck 39.5015 0.66416 3.0935
head 16.0608 -1.80278 2.82012
rclavicle 9.78021e-014 -2.18663e-014
rhumerus -35.6222 -17.0323 -71.4848
rradius 23.1929
rwrist -6.34624
rhand -23.7714 9.21541
rfingers 7.12502
rthumb 2.69818 -20.7473
lclavicle 9.78021e-014 -2.18663e-014
lhumerus -33.675 3.24054 84.342
lradius 44.6034
lwrist 8.66136
lhand -21.646 23.5666
lfingers 7.12502
lthumb 4.75057 53.4933
rfemur -10.8093 1.11009 23.2127
rtibia 29.4193
rfoot -16.738 9.11307
rtoes 14.5361
lfemur -15.2238 -9.25377 -10.0736
ltibia 31.8868
lfoot -8.44392 -33.051
ltoes 2.0897
3858
root 31.7834 17.6907 -9.60055 1255.88 -42.8794 -171.813
lowerback 5.53242 -0.576403 3.62945
upperback 2.22168 -0.747942 4.03563
thorax -0.799067 -0.465307 2.16597
lowerneck -12.3849 1.67217 -9.09199
upperneck 39.3934 0.723664 2.93349
head 16.0246 -1.73569 2.72018
rclavicle -2.52457e-014 -4.05521e-014
rhumerus -35.2393 -16.9889 -71.4494
rradius 23.0884
rwrist -5.61416
rhand -23.8382 9.83027
rfingers 7.12502
rthumb 2.63361 -20.1332
lclavicle -2.52457e-014 -4.05521e-014
lhumerus -33.6161 3.8777 84.1096
lradius 44.1288
lwrist 7.96893
lhand -20.3013 22.2215
lfingers 7.12502
lthumb 6.04895 52.1152
rfemur -10.6351 0.43558 23.8249
rtibia 29.2601
rfoot -16.966 8.5359
rtoes 14.4043
lfemur -15.7878 -8.64397 -9.71527
ltibia 32.57
lfoot -9.9332 -32.4322
ltoes -1.38834
3859
root 31.8176 17.699 -9.64342 1255.67 -43.9628 -171.615
lowerback 5.58067 -0.530223 3.61415
upperback 2.28448 -0.693168 4.14723
thorax -0.759961 -0.440918 2.28694
lowerneck -12.3519 1.55449 -8.95639
upperneck 39.2238 0.626142 2.79316
head 15.9414 -1.74382 2.62192
rclavicle 8.70677e-014 1.11319e-014
rhumerus -34.9772 -16.7134 -71.2617
rradius 23.2468
rwrist -5.48037
rhand -23.5667 9.91732
rfingers 7.12502
rthumb 2.89577 -20.0428
lclavicle 8.70677e-014 1.11319e-014
lhumerus -33.6207 4.36309 84.0434
lradius 43.5316
lwrist 7.10976
lhand -19.3153 21.6739
lfingers 7.12502
lthumb 7.00081 51.5381
rfemur -10.3706 0.176324 24.1289
rtibia 28.9942
rfoot -17.2289 7.34331
rtoes 11.1853
lfemur -16.2931 -7.88586 -9.75461
ltibia 33.3294
lfoot -11.0362 -31.8181
ltoes -3.54414
3860
root 31.8411 17.7025 -9.68462 1255.34 -44.7951 -171.361
lowerback 5.67676 -0.405174 3.78247
upperback 2.34654 -0.521148 4.21188
thorax -0.751855 -0.357158 2.24988
lowerneck -12.3875 1.3965 -9.2321
upperneck 39.1628 0.471927 2.93037
head 15.9319 -1.80939 2.71062
rclavicle 4.1049e-014 -2.38542e-015
rhumerus -34.8685 -16.1359 -71.2466
rradius 23.6521
rwrist -5.57428
rhand -23.3302 9.35612
rfingers 7.12502
rthumb 3.12421 -20.6007
lclavicle 4.1049e-014 -2.38542e-015
lhumerus -33.6495 4.40753 84.0756
lradius 42.8174
lwrist 6.8107
lhand -18.9156 21.9864
lfingers 7.12502
lthumb 7.38659 51.8374
rfemur -9.98813 -0.0973608 24.4564
rtibia 28.6915
rfoot -17.3725 6.46341
rtoes 8.82746
lfemur -16.5287 -7.10851 -9.80458
ltibia 34.0998
lfoot -13.5712 -30.0823
ltoes -9.83974
3861
root 31.8488 17.7042 -9.72629 1254.96 -45.4166 -170.97
lowerback 5.68746 -0.230441 4.2385
upperback 2.33617 -0.266965 4.22975
thorax -0.771707 -0.23005 1.99759
lowerneck -12.3481 1.27858 -9.38735
upperneck 39.2696 0.293979 3.0535
head 15.9933 -1.88945 2.76708
rclavicle 1.24737e-013 -4.6118e-014
rhumerus -34.8787 -16.0723 -71.0745
rradius 23.8474
rwrist -5.26976
rhand -23.3672 9.14915
rfingers 7.12502
rthumb 3.08845 -20.8082
lclavicle 1.24737e-013 -4.6118e-014
lhumerus -33.9912 3.98502 84.1283
lradius 42.5073
lwrist 6.92825
lhand -18.4083 21.946
lfingers 7.12502
lthumb 7.87625 51.7793
rfemur -9.62726 -0.643384 24.8137
rtibia 28.4418
rfoot -17.4022 6.27756
rtoes 9.14118
lfemur -16.6838 -6.13232 -9.78829
ltibia 34.8332
lfoot -16.5166 -27.1814
ltoes -16.6615
3862
root 31.8516 17.7083 -9.76957 1254.75 -46.0257 -170.942
lowerback 5.88649 -0.0238647 4.54147
upperback 2.2363 0.0522035 4.11448
thorax -0.985848 -0.0686999 1.69018
lowerneck -12.1776 1.19591 -9.62864
upperneck 39.4606 0.0794776 3.35879
head 16.0673 -1.98553 2.91212
rclavicle 1.80894e-014 3.81667e-014
rhumerus -35.0514 -15.7446 -71.011
rradius 23.9733
rwrist -5.58363
rhand -23.8926 9.38252
rfingers 7.12502
rthumb 2.58107 -20.5816
lclavicle 1.80894e-014 3.81667e-014
lhumerus -34.5235 3.22419 84.2547
lradius 42.2187
lwrist 7.91595
lhand -18.4445 20.9337
lfingers 7.12502
lthumb 7.84132 50.7683
rfemur -9.17409 -1.21822 24.8526
rtibia 28.2139
rfoot -17.3813 6.29536
rtoes 9.7539
lfemur -16.6902 -5.15588 -10.0644
ltibia 35.542
lfoot -17.8142 -24.4297
ltoes -15.7282
